<svg width="124" height="21" viewBox="0 0 124 21" fill="none" xmlns="http://www.w3.org/2000/svg">
<path d="M0.88 16V2H7.44C9.12 2 10.4 2.33333 11.28 3C12.16 3.65333 12.6 4.53333 12.6 5.64C12.6 6.38667 12.4267 7.02667 12.08 7.56C11.7333 8.08 11.2667 8.48667 10.68 8.78C10.1067 9.06 9.48 9.2 8.8 9.2L9.16 8.48C9.94667 8.48 10.6533 8.62667 11.28 8.92C11.9067 9.2 12.4 9.61333 12.76 10.16C13.1333 10.7067 13.32 11.3867 13.32 12.2C13.32 13.4 12.86 14.3333 11.94 15C11.02 15.6667 9.65333 16 7.84 16H0.88ZM3.48 13.96H7.68C8.65333 13.96 9.4 13.8 9.92 13.48C10.44 13.16 10.7 12.6467 10.7 11.94C10.7 11.2467 10.44 10.74 9.92 10.42C9.4 10.0867 8.65333 9.92 7.68 9.92H3.28V7.9H7.16C8.06667 7.9 8.76 7.74 9.24 7.42C9.73333 7.1 9.98 6.62 9.98 5.98C9.98 5.32667 9.73333 4.84 9.24 4.52C8.76 4.2 8.06667 4.04 7.16 4.04H3.48V13.96ZM20.6548 16.14C19.5615 16.14 18.5882 15.9067 17.7348 15.44C16.8815 14.96 16.2082 14.3067 15.7148 13.48C15.2215 12.6533 14.9748 11.7133 14.9748 10.66C14.9748 9.59333 15.2215 8.65333 15.7148 7.84C16.2082 7.01333 16.8815 6.36667 17.7348 5.9C18.5882 5.43333 19.5615 5.2 20.6548 5.2C21.7615 5.2 22.7415 5.43333 23.5948 5.9C24.4615 6.36667 25.1348 7.00667 25.6148 7.82C26.1082 8.63333 26.3548 9.58 26.3548 10.66C26.3548 11.7133 26.1082 12.6533 25.6148 13.48C25.1348 14.3067 24.4615 14.96 23.5948 15.44C22.7415 15.9067 21.7615 16.14 20.6548 16.14ZM20.6548 14C21.2682 14 21.8148 13.8667 22.2948 13.6C22.7748 13.3333 23.1482 12.9467 23.4148 12.44C23.6948 11.9333 23.8348 11.34 23.8348 10.66C23.8348 9.96667 23.6948 9.37333 23.4148 8.88C23.1482 8.37333 22.7748 7.98667 22.2948 7.72C21.8148 7.45333 21.2748 7.32 20.6748 7.32C20.0615 7.32 19.5148 7.45333 19.0348 7.72C18.5682 7.98667 18.1948 8.37333 17.9148 8.88C17.6348 9.37333 17.4948 9.96667 17.4948 10.66C17.4948 11.34 17.6348 11.9333 17.9148 12.44C18.1948 12.9467 18.5682 13.3333 19.0348 13.6C19.5148 13.8667 20.0548 14 20.6548 14ZM33.5455 16.14C32.4521 16.14 31.4788 15.9067 30.6255 15.44C29.7721 14.96 29.0988 14.3067 28.6055 13.48C28.1121 12.6533 27.8655 11.7133 27.8655 10.66C27.8655 9.59333 28.1121 8.65333 28.6055 7.84C29.0988 7.01333 29.7721 6.36667 30.6255 5.9C31.4788 5.43333 32.4521 5.2 33.5455 5.2C34.6521 5.2 35.6321 5.43333 36.4855 5.9C37.3521 6.36667 38.0255 7.00667 38.5055 7.82C38.9988 8.63333 39.2455 9.58 39.2455 10.66C39.2455 11.7133 38.9988 12.6533 38.5055 13.48C38.0255 14.3067 37.3521 14.96 36.4855 15.44C35.6321 15.9067 34.6521 16.14 33.5455 16.14ZM33.5455 14C34.1588 14 34.7055 13.8667 35.1855 13.6C35.6655 13.3333 36.0388 12.9467 36.3055 12.44C36.5855 11.9333 36.7255 11.34 36.7255 10.66C36.7255 9.96667 36.5855 9.37333 36.3055 8.88C36.0388 8.37333 35.6655 7.98667 35.1855 7.72C34.7055 7.45333 34.1655 7.32 33.5655 7.32C32.9521 7.32 32.4055 7.45333 31.9255 7.72C31.4588 7.98667 31.0855 8.37333 30.8055 8.88C30.5255 9.37333 30.3855 9.96667 30.3855 10.66C30.3855 11.34 30.5255 11.9333 30.8055 12.44C31.0855 12.9467 31.4588 13.3333 31.9255 13.6C32.4055 13.8667 32.9455 14 33.5455 14ZM43.6761 13.62L43.7361 10.48L49.3161 5.32H52.3161L47.5761 10.08L46.2561 11.18L43.6761 13.62ZM41.6361 16V1.16H44.1361V16H41.6361ZM49.6961 16L45.7961 11.18L47.3761 9.18L52.7361 16H49.6961ZM54.3509 16V5.32H56.8509V16H54.3509ZM55.6109 3.56C55.1443 3.56 54.7576 3.41333 54.4509 3.12C54.1576 2.82667 54.0109 2.47333 54.0109 2.06C54.0109 1.63333 54.1576 1.28 54.4509 0.999999C54.7576 0.706666 55.1443 0.56 55.6109 0.56C56.0776 0.56 56.4576 0.699999 56.7509 0.979999C57.0576 1.24667 57.2109 1.58667 57.2109 2C57.2109 2.44 57.0643 2.81333 56.7709 3.12C56.4776 3.41333 56.0909 3.56 55.6109 3.56ZM66.1922 5.2C67.0455 5.2 67.8055 5.36667 68.4722 5.7C69.1522 6.03333 69.6855 6.54667 70.0722 7.24C70.4589 7.92 70.6522 8.8 70.6522 9.88V16H68.1522V10.2C68.1522 9.25333 67.9255 8.54667 67.4722 8.08C67.0322 7.61333 66.4122 7.38 65.6122 7.38C65.0255 7.38 64.5055 7.5 64.0522 7.74C63.5989 7.98 63.2455 8.34 62.9922 8.82C62.7522 9.28667 62.6322 9.88 62.6322 10.6V16H60.1322V5.32H62.5122V8.2L62.0922 7.32C62.4655 6.64 63.0055 6.12 63.7122 5.76C64.4322 5.38667 65.2589 5.2 66.1922 5.2ZM78.6831 20.02C77.6965 20.02 76.7298 19.8867 75.7831 19.62C74.8498 19.3667 74.0831 18.9933 73.4831 18.5L74.6031 16.62C75.0698 17.0067 75.6565 17.3133 76.3631 17.54C77.0831 17.78 77.8098 17.9 78.5431 17.9C79.7165 17.9 80.5765 17.6267 81.1231 17.08C81.6698 16.5467 81.9431 15.74 81.9431 14.66V12.76L82.1431 10.34L82.0631 7.92V5.32H84.4431V14.38C84.4431 16.3133 83.9498 17.7333 82.9631 18.64C81.9765 19.56 80.5498 20.02 78.6831 20.02ZM78.3631 15.52C77.3498 15.52 76.4298 15.3067 75.6031 14.88C74.7898 14.44 74.1431 13.8333 73.6631 13.06C73.1965 12.2867 72.9631 11.38 72.9631 10.34C72.9631 9.31333 73.1965 8.41333 73.6631 7.64C74.1431 6.86667 74.7898 6.26667 75.6031 5.84C76.4298 5.41333 77.3498 5.2 78.3631 5.2C79.2698 5.2 80.0831 5.38 80.8031 5.74C81.5231 6.1 82.0965 6.66 82.5231 7.42C82.9631 8.18 83.1831 9.15333 83.1831 10.34C83.1831 11.5267 82.9631 12.5067 82.5231 13.28C82.0965 14.04 81.5231 14.6067 80.8031 14.98C80.0831 15.34 79.2698 15.52 78.3631 15.52ZM78.7431 13.4C79.3698 13.4 79.9298 13.2733 80.4231 13.02C80.9165 12.7533 81.2965 12.3933 81.5631 11.94C81.8431 11.4733 81.9831 10.94 81.9831 10.34C81.9831 9.74 81.8431 9.21333 81.5631 8.76C81.2965 8.29333 80.9165 7.94 80.4231 7.7C79.9298 7.44667 79.3698 7.32 78.7431 7.32C78.1165 7.32 77.5498 7.44667 77.0431 7.7C76.5498 7.94 76.1631 8.29333 75.8831 8.76C75.6165 9.21333 75.4831 9.74 75.4831 10.34C75.4831 10.94 75.6165 11.4733 75.8831 11.94C76.1631 12.3933 76.5498 12.7533 77.0431 13.02C77.5498 13.2733 78.1165 13.4 78.7431 13.4ZM92.7498 16.14C91.5632 16.14 90.5232 15.9067 89.6298 15.44C88.7498 14.96 88.0632 14.3067 87.5698 13.48C87.0898 12.6533 86.8498 11.7133 86.8498 10.66C86.8498 9.59333 87.0832 8.65333 87.5498 7.84C88.0298 7.01333 88.6832 6.36667 89.5098 5.9C90.3498 5.43333 91.3032 5.2 92.3698 5.2C93.4098 5.2 94.3365 5.42667 95.1498 5.88C95.9632 6.33333 96.6032 6.97333 97.0698 7.8C97.5365 8.62667 97.7698 9.6 97.7698 10.72C97.7698 10.8267 97.7632 10.9467 97.7498 11.08C97.7498 11.2133 97.7432 11.34 97.7298 11.46H88.8298V9.8H96.4098L95.4298 10.32C95.4432 9.70667 95.3165 9.16667 95.0498 8.7C94.7832 8.23333 94.4165 7.86667 93.9498 7.6C93.4965 7.33333 92.9698 7.2 92.3698 7.2C91.7565 7.2 91.2165 7.33333 90.7498 7.6C90.2965 7.86667 89.9365 8.24 89.6698 8.72C89.4165 9.18667 89.2898 9.74 89.2898 10.38V10.78C89.2898 11.42 89.4365 11.9867 89.7298 12.48C90.0232 12.9733 90.4365 13.3533 90.9698 13.62C91.5032 13.8867 92.1165 14.02 92.8098 14.02C93.4098 14.02 93.9498 13.9267 94.4298 13.74C94.9098 13.5533 95.3365 13.26 95.7098 12.86L97.0498 14.4C96.5698 14.96 95.9632 15.3933 95.2298 15.7C94.5098 15.9933 93.6832 16.14 92.7498 16.14ZM105.191 16.14C104.005 16.14 102.965 15.9067 102.071 15.44C101.191 14.96 100.505 14.3067 100.011 13.48C99.5313 12.6533 99.2913 11.7133 99.2913 10.66C99.2913 9.59333 99.5246 8.65333 99.9913 7.84C100.471 7.01333 101.125 6.36667 101.951 5.9C102.791 5.43333 103.745 5.2 104.811 5.2C105.851 5.2 106.778 5.42667 107.591 5.88C108.405 6.33333 109.045 6.97333 109.511 7.8C109.978 8.62667 110.211 9.6 110.211 10.72C110.211 10.8267 110.205 10.9467 110.191 11.08C110.191 11.2133 110.185 11.34 110.171 11.46H101.271V9.8H108.851L107.871 10.32C107.885 9.70667 107.758 9.16667 107.491 8.7C107.225 8.23333 106.858 7.86667 106.391 7.6C105.938 7.33333 105.411 7.2 104.811 7.2C104.198 7.2 103.658 7.33333 103.191 7.6C102.738 7.86667 102.378 8.24 102.111 8.72C101.858 9.18667 101.731 9.74 101.731 10.38V10.78C101.731 11.42 101.878 11.9867 102.171 12.48C102.465 12.9733 102.878 13.3533 103.411 13.62C103.945 13.8867 104.558 14.02 105.251 14.02C105.851 14.02 106.391 13.9267 106.871 13.74C107.351 13.5533 107.778 13.26 108.151 12.86L109.491 14.4C109.011 14.96 108.405 15.3933 107.671 15.7C106.951 15.9933 106.125 16.14 105.191 16.14ZM114.653 13.62L114.713 10.48L120.293 5.32H123.293L118.553 10.08L117.233 11.18L114.653 13.62ZM112.613 16V1.16H115.113V16H112.613ZM120.673 16L116.773 11.18L118.353 9.18L123.713 16H120.673Z" fill="black"/>
</svg>
